<svg xmlns="http://www.w3.org/2000/svg" data-name="Layer 1" viewBox="0 0 100 125" x="0px" y="0px"><title>data, table, database, data table, xls</title><path d="M67.5,6C54.81,6,41.16,8.79,41,14.9h0V36H13a7,7,0,0,0-7,7V87a7,7,0,0,0,7,7H68a7,7,0,0,0,7-7V70.66c9.51-.89,19-3.64,19-8.95V14.9h0C93.84,8.79,80.19,6,67.5,6ZM19,90H13a3,3,0,0,1-3-3V84h9Zm0-10H10V74h9Zm0-10H10V64h9Zm0-10H10V54h9ZM32,90H23V84h9Zm0-10H23V74h9Zm0-10H23V64h9Zm0-10H23V54h9ZM45,90H36V84h9Zm0-10H36V74h9Zm0-10H36V64h9Zm0-10H36V54h9ZM58,90H49V84h9Zm0-10H49V74h9Zm0-10H49V64h9Zm0-10H49V54h9ZM71,87a3,3,0,0,1-3,3H62V84h9Zm0-7H62V74h9Zm0-10H62V64h9Zm0-10H62V54h9Zm0-10H10V43a3,3,0,0,1,3-3H68a3,3,0,0,1,3,3ZM90,61.71c0,1.06-4.49,3.91-15,4.93v-11c5.68-.54,11.35-1.74,15-3.76Zm0-15.07c0,1.07-4.49,4-15,5V43a7.07,7.07,0,0,0-.81-3.27C80.44,39.24,86.3,38,90,36Zm0-15.89v.14C90,32.37,82.12,36,67.5,36S45,32.37,45,30.89V20.06C50,22.74,59,24,67.5,24S85,22.74,90,20.06ZM67.5,20C52,20,45,16.16,45,15s7-5,22.5-5S90,13.84,90,15,83,20,67.5,20Z"/><text x="0" y="115" fill="#000000" font-size="5px" font-weight="bold" font-family="'Helvetica Neue', Helvetica, Arial-Unicode, Arial, Sans-serif">Created by Bernar  Novalyi</text><text x="0" y="120" fill="#000000" font-size="5px" font-weight="bold" font-family="'Helvetica Neue', Helvetica, Arial-Unicode, Arial, Sans-serif">from the Noun Project</text></svg>